<?xml version="1.0" encoding="utf-8"?>
<!-- Generator: Adobe Illustrator 27.5.0, SVG Export Plug-In . SVG Version: 6.00 Build 0)  -->
<svg version="1.1" id="Layer_1" xmlns="http://www.w3.org/2000/svg" xmlns:xlink="http://www.w3.org/1999/xlink" x="0px" y="0px"
	 viewBox="0 0 750 750" style="enable-background:new 0 0 750 750;" xml:space="preserve">
<g>
	<polygon points="444.493,148.331 443.675,150.374 445.31,150.374 448.172,147.922 451.033,144.652 452.26,140.972 451.033,141.381 
		448.989,142.199 448.172,139.337 446.946,138.929 445.719,140.972 442.858,144.243 442.449,145.878 443.675,145.878 
		446.128,144.652 446.373,144.406 448.172,143.425 447.763,144.652 	"/>
	<polygon points="497.634,443.471 496.817,443.88 493.547,443.88 490.276,445.515 489.868,447.15 490.685,447.968 492.729,448.376 
		495.591,446.332 499.27,443.88 	"/>
	<polygon points="88.035,500.292 84.356,503.971 83.539,506.015 84.765,506.015 88.444,503.153 90.488,500.7 91.305,498.248 
		88.035,497.839 87.626,499.474 88.853,499.883 	"/>
	<polygon points="471.881,116.037 470.655,116.037 467.385,118.49 464.523,121.351 464.114,122.986 466.158,122.577 471.064,118.49 
			"/>
	<polygon points="177.15,354.765 177.558,354.357 179.194,351.086 179.602,349.042 178.785,349.042 176.741,350.269 174.288,353.13 
		174.697,354.765 	"/>
	<polygon points="525.432,418.126 525.023,416.491 517.665,416.491 516.847,416.9 514.511,419.528 512.759,420.988 510.307,423.849 
		510.715,425.076 513.168,425.485 513.811,425.076 513.986,425.076 517.052,423.032 521.344,420.579 	"/>
	<polygon points="598.604,375.204 595.333,377.248 594.925,378.883 596.151,378.883 600.648,376.022 603.918,373.569 
		604.327,372.343 602.283,372.343 	"/>
	<polygon points="462.888,130.344 464.523,130.344 466.976,128.3 467.793,126.665 468.611,126.665 469.429,125.439 468.202,125.03 
		467.385,125.439 463.706,128.3 	"/>
	<polygon points="552.82,420.17 552.411,423.032 550.776,423.849 550.346,424.194 545.871,426.711 542.192,429.572 540.148,431.616 
		541.374,432.025 547.915,427.937 549.102,426.965 549.141,427.12 552.411,424.258 555.682,421.397 556.09,419.762 553.638,419.762 
			"/>
	<polygon points="526.658,429.981 527.476,427.12 526.658,427.12 523.388,429.164 522.979,431.207 524.614,431.616 	"/>
	<polygon points="100.299,474.947 100.605,474.947 100.299,476.173 101.116,476.173 102.751,474.947 103.569,473.312 
		103.078,473.312 103.569,472.903 106.839,470.859 107.248,468.815 106.43,468.815 105.613,469.224 104.795,471.268 
		102.751,471.677 100.707,473.312 	"/>
	<polygon points="475.272,135.201 473.108,136.885 471.064,137.293 470.655,135.25 470.655,134.023 469.837,134.432 469.02,135.045 
		467.385,136.067 464.114,138.52 464.114,139.746 467.385,139.746 468.202,140.972 469.02,140.972 472.29,139.337 475.48,137.273 
		475.56,137.293 479.239,134.841 480.057,133.206 478.422,133.206 476.787,134.023 476.221,134.463 475.56,134.841 	"/>
	<polygon points="526.249,434.478 528.293,432.843 528.293,430.799 527.476,430.799 527.067,431.207 524.614,432.843 
		524.205,435.704 525.432,436.113 	"/>
	<path d="M679.542,225.59h-1.226l-3.679,2.044v-1.226l2.861-2.453l0.818-1.635l-3.27-1.226v-0.818l2.044-1.635l0.409-1.226h-1.226
		l-2.044,1.226l0.028,0.056l-2.481,1.579l-0.012,0.037l-0.877,0.564l-0.655,0.262l-2.543,0.363l2.453-2.861l0.818-1.635h-0.818
		l-0.227-0.454l0.196-0.489l3.302-1.101l0.409-2.044h-2.453l1.005-0.862l0.221,0.044l1.635-1.635l-1.635-0.409l-0.818,0.409
		l-0.204,0.204l-3.066,1.839l0.063,0.063l-1.581,0.988l-4.567,2.644l-0.047-0.016l-0.934,0.584l-1.11,0.642l-0.136,0.136
		l-1.09,0.681l-0.058,0.117l-1.168,0.701l-0.818,0.409v0.037l-3.679,2.007l-0.409-1.635l2.453-3.27l0.409-0.818l0,0l0,0l1.226-2.453
		l1.635-2.044l6.54-3.27l0.409-1.635h-1.635l-2.453,1.226l-3.094,1.933l-0.177-0.707l1.226-2.044l0.409-2.861l0.818-1.635
		l1.635-3.679l0.409-4.088l2.453-4.088l0.409-2.861h-1.226v-5.723l-0.511-0.766l-0.443-1.55l-0.146-1.165l1.099-1.832v-1.635
		l0.409-4.088l-1.226-3.679l0.409-3.27l1.635-1.226l0.818-1.635l-2.453,0.409v-1.226l0.818-1.635l1.226-0.409l1.226-1.226
		l0.818-1.635l1.226-0.409l0.409-1.635h-2.861l-2.453,1.226l1.226-2.453l1.635-2.453l-0.409-1.226h-2.862v-0.818l2.862-2.453
		l0.818-1.635h-2.453l-2.453,1.635l-4.905,2.453l2.044-2.044l4.088-1.635l2.862-2.861l4.905-2.453l2.044-2.044l-4.088,1.226
		l0.749-1.499l1.703-1.363v-1.635h-1.226l-2.453,0.818l-3.153,1.752l-1.752,0.292l-0.409-1.226h-0.818l-1.635,1.635l-2.658,0.818
		l-1.43,0.409l0.049,0.016l-1.275,0.392l-3.679,0.409l-0.409-0.818l-2.044-0.409v-1.226h-4.088l-0.818,1.226l-2.044,1.226
		l0.409-0.818l-0.037-0.111l0.446-1.115l2.555-2.044l0.715-0.409l0.074-0.223l0.743-0.595l1.226-2.861l2.044-2.044l2.453-3.679
		l4.088-3.27l0.409-1.635l-0.818-0.409l-2.862-0.409l-0.409-0.818l0.409-1.635l1.226-1.635l0.409-2.044h-1.226l-5.723,5.723
		l-6.949,3.27v-2.861l-0.409-1.226l-0.204-0.204l-0.613-1.431h-2.044l-5.314,2.952v-0.091l-2.044,1.226l-1.635,0.409l-0.409-1.635
		h0.818l2.453-1.635l0.818-1.635h-1.226l-3.27,1.635l-2.861,0.409l-0.409-1.635l-0.818-0.818h-2.044l-1.226,0.818v0.102
		l-0.409,0.307l-2.453,0.409l-0.818-1.226l-2.861,0.818l-3.679,0.409l-1.226-1.226l-2.044-0.409l-2.453,0.818l-4.088,0.409v-4.088
		l-1.635-0.818l0.818-6.54h-1.226l-3.679,1.226l-0.409-4.088l1.635-2.044l-0.204-0.102l0.204-0.307l-0.52,0.149l-0.297-0.149
		l-2.044,0.818h-3.27l-2.239,1.742l-0.213-0.107l-0.645,0.775l-0.581,0.452l-4.497,2.473v-0.02l-3.679,2.044l-5.314,3.27
		l0.409-0.818l2.044-1.635l3.27-2.861l4.905-3.679l2.044-2.044l-1.226-0.409l-0.818,0.409l-2.453,1.635l-4.497,2.861l-2.18,1.499
		l-1.499,0.954l-0.245,0.245l-2.616,1.799l-4.497,2.862l-3.27,0.818l0.409,1.635l-1.226,1.635l-2.861,1.635v-2.861l2.044-2.044
		l1.635-2.044l-0.818-0.409l-2.861,2.044l-1.226,1.226l-3.27,2.861l-1.226,3.27l-2.044,2.453l0.029,0.01l-1.664,2.034l-1.226,2.453
		l-1.226,0.818l-3.27,0.818l-3.27,2.044l-0.164,0.164l-2.289,1.472l-1.226,2.453l-2.044,0.818l0.409-1.635l1.635-2.453l0.818-1.635
		h-0.818l-3.27,2.861l0.082,0.327l-0.899,0.899l-4.088,3.27l-1.178,0.842l-0.048-0.024l-4.497,3.27l-4.905,3.679l-3.679,0.409
		l-2.725,2.453l-1.713,1.402l-1.285,0.642l1.635-2.044l0.818-1.635h-1.226l-2.044,1.635l-1.61,1.239l-0.025-0.012l-3.27,2.453
		l-0.584,0.438l-2.278,0.38l1.226-2.453l0.772-1.158l6.177-5.791l0.755-1.006l0.063,0.189l1.635-2.453l2.044-6.541l2.453-3.679
		l3.679-4.497l3.27-2.861l3.679-2.861l3.019-2.767l3.113-2.547l1.635-2.044l4.905-4.905l1.226-4.497l4.497-5.723l3.679-4.497
		l0.409-2.044h-1.226l-0.409,0.409l-4.288,2.522l-0.209-0.07l-2.453,1.635l-6.949,5.314l-0.204,0.613l-0.204,0.204l0.146-0.029
		l-0.146,0.438h-0.818l-2.861,2.861l-0.818,1.635h-0.818v0.818h-0.818l-0.409,1.226l-4.905,2.453l-0.409-3.27l0.818-1.226
		l2.453-1.635l5.723-4.905l-0.818-0.409l-4.497,3.27l-1.993,1.533l-2.912,2.146l-0.196,0.245l-0.213,0.163l-0.136,0.273l-1.09,1.363
		l0,0l-1.533,1.916l-2.147,1.968l-2.043,1.839l-2.044,1.363l-2.289,1.335l-2.616,0.981v-1.226l-2.044,0.409v-0.818h-0.818
		l-4.497,3.27l-4.088,3.679l-0.818,1.635l2.862-0.818l0.409,1.226l4.905-4.905l2.453-0.818l1.226,0.818l-0.409,2.044h-0.818
		l-1.635,1.226l-4.088,4.497l-4.905,2.861l-0.409,0.273l-0.409,0.136l-2.861,2.044l-3.27,1.226v-0.818l-0.409-1.635h-2.453
		l-0.818,0.409v1.226l-0.6,0.899l-3.897,3.189l-6.132,5.314l-3.27,2.044l-2.453,2.044l-6.238,4.852l-0.711-0.355l-1.635,1.226
		h-1.226v-2.044l-1.308,0.654l-0.327-0.654l-4.088,2.453l0.996,0.332l-1.405,0.894l-0.818,1.635h1.226l1.226,0.409l-0.818,2.044
		l-4.088,3.27l-6.54,4.497l-2.861-0.818l-2.044,1.635l-0.409,2.044l-0.818,2.044l-5.723,1.226l0.409-0.818l0.818-2.044h-1.226
		l-5.314,3.27l-5.723,3.27l-2.453,1.635h-2.453l-1.635,1.226l-0.818,2.044l-2.861,0.409l-5.314,3.679l-3.679,1.635l-2.044-0.409
		l-0.743-3.716l0.198-1.189l0.954-2.861l2.453-2.861l3.27-2.861l4.905-4.905l4.905-3.679l4.905-4.088l4.497-5.314l2.861-3.27
		l2.453-2.453l4.088-4.088l6.54-6.132v-2.044l0.409-1.226l3.27-1.635l2.861-3.27l2.861-1.226l2.453-1.635l2.453-2.861l3.27-2.861
		l4.497-4.088l0.818-1.635l-1.635-0.409l-2.044,1.635l-4.497,3.679l-4.088,3.679l-3.679,1.635l-0.409,1.226l-3.27,2.861
		l-3.679,2.044l-3.27,2.861l-8.176,5.723l-11.037,7.358l-4.497,3.27l-6.132,5.314l-4.497,3.679l-4.497,2.862l-5.723,3.679
		l-6.132,4.088l-3.679,3.27l-6.54,6.54l-3.27,2.044l-1.635,0.409l-0.409-3.27l-1.226,0.409l-3.27,4.088l-0.818,3.27l-4.905,4.905
		l-3.679,4.088l-3.679,4.497l-2.861,3.27l-2.861,2.861l-4.497,3.679l-3.27,3.679l-0.409,1.635h1.226l1.635-1.635h2.453l0.263,0.263
		l-1.898,3.416l-1.635,3.679l-2.453,2.044l-0.141,0.226l-0.677,0.592l-0.35,1.051l-0.876,1.402l-2.861,2.453l-2.044-0.409
		l-0.136,0.045l-0.273-0.045l-0.204,0.204l-0.613,0.204l-0.899,0.654l-0.327,0.163l-3.27,2.453l-5.559,3.27l-2.208,1.226
		l-3.679,2.453l-0.943,0.849l-1.101,0.786l-2.861,2.861l-2.698,4.415l-0.572,0.9l-0.053,0.124l-1.173,1.919l-3.27,3.679
		l-4.905,4.497l-3.679,2.044l-2.453-1.226l-3.679,3.27l-0.311,0.701l-0.097-0.292l-1.226,3.27l-4.497,4.088l0.027,0.009l-0.436,0.4
		l-4.088,2.044l-5.723,1.226l-3.679,1.635l-3.679,4.088l-0.727,1.151l-0.091,0.076l-4.088,6.54l-4.088,5.723l-0.063,0.157
		l-0.755,1.069l-4.905,4.905l-3.27,2.861l-4.905,4.497l-3.27,2.861l-5.314,5.314l-3.27,2.861l-4.497,4.088l-4.497,2.453
		l-3.679,0.818h-3.27l-4.088,0.818l-2.044,2.453l0.409,3.27h-1.226l-0.818,1.635l-1.635,0.409l-2.044,2.453l-0.818,4.497
		l-3.052,4.96l-2.262,3.29l-2.044,2.787l-0.068,0.136l-2.385,2.725l-4.497-0.409v-0.818l3.27-2.044l0.409-1.635l-1.635-0.409
		l-2.861,2.044l-3.27,3.27l-1.202,1.563l-0.433,0.481l-3.03,3.703l-2.693,2.02l-2.861,1.635l-2.453-0.409l-0.346-2.075l1.572-0.786
		l-0.818-0.818l-0.409-1.431V356.4h-1.226l-2.044,3.27l-1.635,3.679l-0.409,4.497l-0.818,1.635l0,0l-1.226,2.453l-2.044,1.226
		l-0.818,2.453l-1.635,0.409l-0.818,0.818l-0.818,2.861l-1.226,0.818l-3.27,4.088l-2.453,2.044l-4.905,3.27l-6.949,3.679
		l-5.314,1.635l-9.811,1.226l0.409,0.818l4.088,0.818l-1.226,3.27l-1.635,6.949l-1.226,8.176l-0.818,4.905v3.679l1.226,1.226
		l2.861-0.409l-0.818,2.044h1.226l1.226-0.818l-0.126-0.063l0.943-0.755l3.27-1.226v0.818h1.226l2.861-1.226l2.453-0.818l3.27-2.044
		l5.723-3.27l4.088-3.27l9.811-5.314h4.088l1.226,0.818v2.861l-1.635,5.723l-1.635,3.679l-0.818,3.27l-3.27,5.723l-4.088,5.314
		l-2.861,2.044l0.094,0.031l-0.503,0.377l-2.453-0.409v-1.226l2.861-2.861l-1.226-0.409l-3.27,2.861l-2.453,1.635l0.409-1.226
		l1.635-3.27l-0.409-1.226l-1.635,0.818l-0.613,0.681l-0.204,0.136l-0.818,0.999l-2.044,2.271v0.227l-0.818,0.999l-4.905,4.905
		l-2.126,1.962l-1.962,1.717l-0.502,0.557l-0.725,0.669l-1.226,1.499l-1.226,1.363l-0.077,0.23l-1.15,1.405l-1.226,4.088
		l-3.27,0.818l-0.73,1.168l-0.088,0.058l-1.226,2.044v3.27l-2.044,3.27l-4.088,4.497l-2.861,3.27l-4.497,4.905l-0.397,0.426
		l-0.011-0.017l-0.409,0.409l-1.471,1.635l-3.434,3.679l-0.92,1.226l-0.715,0.818l0.074,0.037l-0.211,0.281l-0.273,0.091
		l-0.409,0.818l-2.272,2.525l-0.18-0.072l-1.226,1.635l0.818,1.226l1.635,0.409l1.635-2.044l-0.818-0.409l1.226-1.635l1.59-2.067
		l0.045,0.023l0.818-1.145l1.635-2.126l0.954-1.09l2.244-2.469l2.525-2.164l4.905-5.314l3.27-2.044l0.02-0.06l4.068-2.393h3.679
		l2.044,0.409l2.861-2.861l3.679-4.905l1.635-0.818l-0.409,2.044l-3.27,4.088v2.861l-2.044,3.27l-0.058,0.117l-2.803,3.153
		l-4.088,5.723l-2.044,2.044l-2.718,3.883l-3.822,3.475l-2.861,1.635l-1.226-0.409l-0.818-2.861l1.635-1.635l0.409-3.679
		l0.409-0.409l4.905-2.861l1.635-2.044l0.818-2.044l2.044-3.27v-2.044h-1.226l-2.044,1.226l-7.767,7.767l-4.421,4.126l-0.076-0.038
		l-4.088,4.088h0.35l-0.35,0.409l1.022-0.409h0.204h0.595l-1.617,2.964l-1.567,2.35l-1.037,1.333l-0.053-0.107l-0.818,1.226
		l-2.044,1.226l-0.409,0.409l-3.27,2.861l-3.27,3.679l-4.497,3.679l-3.27,2.861l1.226,0.409l1.635-1.226l3.27-0.409l2.044-2.861
		l3.27-2.861l1.453-1.817l0.795-0.636l1.84-1.226l0,0l1.226-0.818l2.044-2.453l1.635-0.409l0.409,1.226l-1.635,1.635l-0.409,1.635
		l2.044,0.409l1.717-1.472l2.598-1.89l2.284-1.427l2.739-1.494l-0.14,0.559l-1.84,2.453l-3.679,4.497l-3.679,2.861l-2.861,2.861
		l-3.27,2.453l-2.861,2.861l-0.818,1.635h-0.818l-2.289,2.575l-3.434,3.148l-0.46,0.511l-0.358,0.307v0.091l-1.119,1.243
		l-0.108-0.108l-0.255,0.511l-0.153,0.17l-0.409,0.136l-0.818,1.226l-2.453,3.27v1.226l3.27-3.27l2.452-2.248l2.044-1.84
		l0.151-0.172l0.258-0.237l-0.036-0.018l0.263-0.3l0.182-0.091l0.086-0.215l1.336-1.527l0.213,0.107l0.409-0.818l2.044-1.226v-0.234
		l0.818-0.584l3.27-2.044l1.226-1.226l0,0l0,0l1.635-1.635l0,0l0.409-0.409v-0.204l0.245-0.368l0.572-0.654l0.654-0.491l0.164,0.082
		l2.453-2.044l2.453-1.635l2.453-2.044l4.088-2.453h4.497l1.635,0.409l1.226,1.226v3.679l-1.635,3.27l-1.635,2.453l-3.679,6.541
		l-0.409,2.453l1.453,0.363l-0.309,0.618l-1.145,1.335l-1.635,1.363l-2.044,2.453l-0.818,0.818l-3.27,3.27v1.226l3.679-2.861
		l3.27-0.818l1.226-1.635l1.363-1.703l4.769-2.385v1.635l-1.499,2.18l-3.407,4.769l-0.409,0.5l-2.861,3.179l-0.309,0.696
		l-0.099,0.122l-0.136,0.409l-1.09,2.453l0.136,0.409l-0.136,0.409l0.307,0.102l0.102,0.307l0.327-0.164l0.491,0.164l0.545-0.681
		l0.273-0.136l1.085-0.888l0.141,0.07l3.27-2.862l4.905-4.905l2.044,1.635l2.044,0.409l2.044-3.066l1.635-2.044l0.907-1.058
		l3.999-1.6l3.27-1.635l0.818-2.044l1.635-3.27l2.861-2.862l4.497-2.453l-1.635,2.998l-1.145,1.908l-1.308,1.635l-1.226,5.314
		l-2.044,3.679l-0.041,0.143l-0.368,0.674l-0.094,0.943l-0.314,1.101l-2.044,4.088l-1.635,1.635l-2.861,2.862l-0.818,1.635h0.818
		l3.27-2.861l5.314-5.314l4.088-2.044v2.044l-1.635,4.497l-2.453,3.27l-2.676,3.27l-2.23,2.453l-0.409,0.409l-2.861,2.862
		l-0.818,1.635h-0.818l-1.635,2.044l0.409,1.635l2.861-0.818l0.818-2.453l1.635-1.635l5.314-2.453l-0.818,1.635l-2.044,1.635h0
		l-2.044,1.635l-0.409,1.226l0.818,0.409l-0.409,1.635l-2.044,4.088l-0.409,2.044h1.226l0.526-0.35l0.292-0.058l0.409-0.409
		l1.226-0.818h2.044l1.226,2.044h1.226l2.044-1.226l3.679-1.226l2.861-2.044l3.27,0.409l1.717-1.374l3.597-1.079l2.453,0.409
		l2.453-0.409l-2.453,3.27l-2.453,0.818l-0.818,1.635l-1.226,1.226l-0.818,1.635l2.044,1.635l0.818,2.453l3.679,0.409v2.044
		l2.044,0.409l4.905-2.044l-0.818,1.635l0.409,2.044l-0.818,3.27l-1.635,2.044l-0.818,1.635h1.226l2.044-1.635l2.861-0.818
		l-0.818,2.862l-2.044,2.453l-0.409,2.453h6.541v1.635l-1.635,2.453v0.409l-0.409,0.818l0.409-0.136v0.136l0.313-0.24l0.505-0.168
		l2.081-1.821l2.415-1.858h4.905v2.044l-1.226,1.635l-0.818,1.635l4.497,0.818l-0.409,1.226l-2.453,4.088v4.088l-0.409,0.818
		l0.409,3.27l-3.168,14.256l-0.715,1.789l-1.839,3.985l-0.074,0.669l-0.743,1.784l-0.409,3.27h0.409l0.818-1.635l3.679-1.226v10.628
		l0.409,1.226h0.818l1.226-5.314l1.226-8.584l2.044-4.088l2.044-2.044l2.453-0.409l3.679-0.409l0.409,4.088l1.635,1.635h4.905
		l-0.818,2.861l-1.635,1.635l-0.409,2.453h0.818l0.409-1.635l1.226,0.409l-0.409,4.088l-0.545,0.409h-0.273l-2.453,2.044
		l-0.409,1.635l1.635,0.818v2.044l-2.453,4.905l-3.27,4.905l-0.409,1.635l2.044,1.226l2.861,0.409l1.635-1.635h2.044l1.226-0.818
		l3.27-1.226l2.453-0.818l2.453-1.226l6.132-3.27l8.176-4.088l4.088-0.818l0.409-0.409l0.801-0.458l2.878-0.36l0.409-1.226
		l0.818,0.409h4.497l4.088-1.226h3.679l2.453,1.226h7.358l1.635,1.635l3.679,1.635l3.679,0.409v-1.635l0.409-1.635l-0.818-2.453
		l0.409-2.453v-2.861l-2.044-4.905l0.818-2.044l2.044-3.27l3.679-2.453l7.767-2.862l2.453-2.044l2.453-1.635l1.226-2.044h2.044
		l2.044,4.497l0.409,2.453l-2.044,2.861l-3.27,3.27l-2.453,1.635l-2.453,2.044l-0.759,1.181l-0.058,0.045l-2.453,3.679l-0.234,0.545
		l-0.175,0.273l-2.861,3.27l-2.453,5.723l-0.409,2.044h1.226v0.818l0.307,0.102l0.102,0.307l0.372-0.149l0.446,0.149l0.755-0.629
		l0.472-0.189v-0.204l3.679-3.066l3.27-1.635l9.402-3.27l5.723-1.226l4.088-2.044l3.679,0.409l1.635-2.453l2.453-4.497v-2.861
		l0.409-2.044l1.226-1.635l4.088-3.679l3.27-1.635l1.226-1.635l0.818-3.27l3.679-2.453l7.358-5.314l2.453-1.226l3.679-3.27
		l9.811-4.905l6.132-2.044l0.204-0.204l0.613-0.204l2.044-2.862l0,0l1.635-2.044l3.27-3.679l2.044-1.226h3.679v1.635l-3.27,4.497
		l-2.044,2.044l-4.497,3.679l-3.679,2.044l-0.818-1.226h-0.818l-2.861,1.635l-3.679,3.679l-0.409,2.862l-1.635,2.044l-2.044,2.044
		l-0.818,1.635l1.635,0.409l1.226-0.818l3.679-2.862l3.27-2.861l5.314-4.497l13.899-8.176l5.723-4.088l6.54-4.905l4.497-3.27
		l5.314-4.088l5.723-4.905l4.088-3.27l5.723-4.497l6.54-5.314l4.497-3.679l4.497-3.27l6.54-4.905l6.132-4.905l3.679-2.862
		l5.723-4.497l4.088-3.27l4.497-3.679l5.314-4.497l5.723-4.497l4.497-4.088l4.497-3.679l4.497-4.088l3.27-2.861l3.679-3.679
		l4.088-3.679l3.27-1.635l1.226-2.044l2.044-1.635l0.409-3.679l2.453-4.088l-0.058-0.029l2.92-3.65l3.679-4.497l0.818-4.905h-0.273
		l0.273-1.635h-0.818l-4.497,3.27l0.818,0.409l2.861-1.635l-0.022,0.221l-0.795,0.597l-5.314,3.679l-13.899,10.22l-3.679,2.453
		v0.818h-0.818l-2.044,1.635l-6.54,4.905l-3.679,2.861l-6.949,5.314l-4.497,3.27l-3.27,2.453l-4.088,2.044l0.409-1.226l1.635-1.635
		l4.497-3.679l6.54-4.905l6.949-4.905l6.949-5.314l7.358-5.314l4.497-3.27l2.616-2.126l1.472-1.145l0.669-0.595l1.784-1.449
		l0.613-0.681l0.613-0.545l1.927-2.278l0.526-0.584l0.92-1.124l1.124-1.329l-0.026-0.013l1.661-2.031l4.905-4.497l8.993-5.723
		l4.905-4.088l4.088-3.27l4.905-3.27l4.497-3.27l5.314-4.088l4.497-3.27l0.409-1.635l-1.635-0.409l-2.044,1.226l-0.613,0.766
		l-0.613,0.46l-3.27,1.635l-2.044,2.453l-1.978,1.259l-0.065-0.033l-2.453,1.635l-3.917,0.783l0.238-1.192l2.861-2.861l-1.635-0.409
		l-5.314,2.044l-0.273,0.191l-0.545,0.218l-0.545,0.545l-2.725,1.908l-7.358,4.905l-4.905,2.044l-6.132,4.497l-4.905,3.27
		l-7.767,5.723l-2.861,1.635l-2.044,1.226l-2.861,1.226l0.409-2.044h-0.818l-3.27,2.861l-2.044,2.044l-2.861,3.27l-4.497,2.998
		V477.4l-1.635,0.818l-1.381,0.592l0.564-1.41l2.861-2.861l4.905-3.27l2.861-2.861l8.176-5.314l5.723-4.497l6.541-4.905v-1.226
		l-1.226,0.818l-4.088,2.453l-2.767,2.012l-1.321,0.849l-6.949,4.497l-4.088,2.861l-0.164,0.327l-0.654,0.491l-4.905,2.453h-1.226
		l4.088-3.679l5.723-4.088l6.54-4.088l4.088-4.497l4.497-3.27l0.409-1.635l-1.226-0.409l0.409-2.044l4.497-2.861l6.132-4.497v-3.679
		h0.818l2.044-1.226l4.088-1.226l4.088-2.453l0.818-1.635l-1.635-0.409l-4.497,2.861l-4.054-0.238l-0.852-0.17h-2.862l0.409-1.226
		l1.635-1.635l3.679-2.044v-3.27h0.818l1.226-1.226l4.088-1.226h4.905l0.818-0.818l3.679-2.453l0.511-0.409h0.307l1.226-1.226
		l4.497-2.861l0.818-1.635l2.044-0.818h4.088l1.226-0.818l2.861-0.409l0.26,1.301l-0.178,1.07l-0.899,0.899l-0.545,0.681
		l-0.681,0.545h0.245l-0.654,0.818l-0.409,1.635l0.818,0.409l1.635-0.409l5.314-3.27l5.723-4.497l5.314-4.905l3.27-2.861
		l4.497-4.497l3.679-2.861l0.232-0.387l2.629-2.066l2.453-3.679l-0.409-1.635h-2.044l-0.064,0.192l-2.389,0.217l-0.818-0.818
		l-0.818-2.044l0.409-1.635l8.584-6.54l2.044-2.044l-0.818-0.409l-3.771,2.057l-2.769,0.396l0.409-0.818l3.679-2.453l7.358-5.314
		l0.014-0.035l5.3-3.644l3.679-1.226v0.818l0.818,0.409l0.339,1.695l-0.407,0.349h-0.341l-2.044,2.044l-1.635,4.088l-1.635,2.044
		l-0.409,2.044l1.226-0.409l6.541-4.905l2.278-1.927l3.617-2.938l3.916-2.492v-0.048l4.088-2.405l4.088-2.044l3.679,0.409
		l1.226-0.818l0.082-0.491l0.327-0.327l-0.136-0.818l0.136-0.818l-0.35-0.467l-0.467-2.803l0.818-0.818l2.044-4.905l0.818-1.635
		h0.818l2.044-2.453l0.031-0.215l0.787-1.012l0.409-2.861l2.044-1.226l3.27-3.679l2.453-3.27l2.862-3.27l0.045-0.273l0.727-1.09
		l0.045,0.136l2.861-4.497l0.409-2.861l2.453-2.861l0.307-0.613l0.102,0.204l0.818-2.044l2.453-4.497l3.27-3.27l0.818-1.226
		l0.091-0.363l2.362-4.133l-0.409-2.044v-2.453l-0.818-0.818h-2.453l-1.635,0.818l-4.497,1.635l-0.409-0.818l4.088-2.044
		l1.635-1.635l2.453-2.861l-1.226-0.409l-2.861,1.226l-0.082,0.061l-3.597,1.574l-2.862,0.409l2.044-2.453l-0.409-2.044v-2.453
		l1.226-0.818l0.204-0.204l1.431-1.022l-0.307-0.102l0.307-0.307l-0.892,0.111l-0.334-0.111l-2.044,0.409l-6.132,2.861l1.226-2.044
		l3.27-4.088l3.679-2.453l0.817-0.409l0.102-0.204l0.307-0.204v-0.136l0.409-0.272l-0.117-0.584l0.117-0.234l-0.204-0.204
		l-0.088-0.438l0.642-1.285l1.366-1.261l1.962-1.717l0.429-0.491l0.797-0.736l0.92-1.226l0.715-0.818l2.453-3.27l1.499-1.873
		l2.998-2.623l1.226-1.132l2.044-1.729l-0.125-0.042l2.169-2.002l5.314-4.497l6.541-4.088l5.723-4.497l0.818-1.226l0.409-0.409
		l0.681-1.227l0.545-0.817l0.172-0.473l0.645-1.162l-0.052-0.47l0.304-0.835l0.157,0.079l0.613-1.839l3.883-3.883L679.542,225.59z
		 M133.001,455.326l-0.818-0.409l-4.088-1.226l0.818-2.453l2.453-2.044l2.861-0.818h0.818l1.226,1.635l3.679-0.409v3.27
		l-0.136,0.136l-0.273-0.136l-2.453,2.453l-4.088,0.818V455.326z M642.752,148.331l4.088-2.044h3.27v1.226l-4.088,2.453
		l-1.343,1.343l-0.04,0.009l-0.252-0.126l-6.132,1.226l1.25-1.563L642.752,148.331z M599.012,303.668v0.818h0.818v-1.226
		l2.044-2.044l-0.35-0.117l0.35-0.292l0.409-0.334v0.334l4.088-3.27h3.27l-2.136,2.492l-2.769,1.187l-1.226,1.635l-3.679,2.861
		l-0.218,0.327l-0.6,0.491l-3.27,1.635l-4.088,3.679l-5.314,4.088l-4.497,2.861v-1.226l2.453-1.635l0,0l1.226-0.818l2.862-2.453
		l2.044-2.453l-0.082-0.041l0.958-0.718l1.168-0.467l2.044-2.044l2.453-2.044l-0.344-0.172l0.753-0.645L599.012,303.668z
		 M599.585,333.509h-1.39l-0.157-0.629l0.566-1.415l1.927-1.285l1.752-0.35l-0.409,1.226l-2.044,2.044l0.192,0.096L599.585,333.509z
		 M522.161,384.606l2.862-2.044l0.818-1.635h-0.818l-5.314,2.861l1.226-2.044l3.679-2.453l3.679-2.861l-0.25-0.083l3.112-2.872
		v0.094l1.226-1.226l0,0l0.409-0.409l0.409-0.409l4.905-3.27l2.453-0.409l0.818,1.635h0.818l1.431-1.022l3.066-1.84l-2.593,2.964
		l-4.356,3.168l-5.314,4.497l-6.54,4.497l-4.497,2.862H522.161z M617.816,284.455l0.35,0.175l-1.168,1.46l-3.27,2.862l-5.723,4.905
		l-5.723,4.088l-5.042,2.881l-4.785,0.684l0.711-0.948l1.622-1.39l2.997-2.452l3.27-2.453l3.679-2.453v-0.223l0.818-0.595
		l0.041-0.164l0.368-0.245v-1.226l0.363-1.09l0.38-0.285l3.345-1.487l3.27-2.862l2.453-1.635h2.861L617.816,284.455z
		 M125.234,492.525l-3.27,3.679l-1.635,2.453l-1.338,1.561l-1.115,0.892l-2.044,0.818v-2.453l-0.409-0.409l0.409-1.635l2.861-3.27
		l0.079-0.316l2.374-2.136l3.679-2.044l1.226,0.409L125.234,492.525z M549.959,369.89l0.818-1.226l2.044-1.635l-0.105-0.419
		l0.05-0.044l0.055,0.055l0.681-0.409h0.136l0.409-0.327l0.818-0.491l3.679-2.453l1.013-0.169l-3.057,3.439l-4.088,3.27
		L549.959,369.89z M621.621,279.172l-0.126-0.031l-1.226,1.022l-0.613,0.307l-0.204-0.102l-1.852,0.265l3.078-2.308h1.226
		L621.621,279.172z M659.512,220.276l-0.818,1.226l-2.044,1.226v-1.226l0.654-0.491L659.512,220.276z M133.819,459.413l0.409,0.818
		l-1.226,1.635l-0.818-0.818L133.819,459.413z M665.235,223.546l-3.679,2.861l-4.088,3.679l-3.679,2.861l-4.497,3.27l-1.168,0.701
		l-0.467,0.117l0.981-3.597l0.927-1.853l0.681-0.954l0.845-1.056l1.799-1.124l6.213-3.27l0.654-0.654l3.434-2.207l2.862-0.409
		l0.409,0.818l-0.204,0.204L665.235,223.546z M638.664,118.898h1.226l-1.226,1.635l-0.545-0.545L638.664,118.898z M473.108,147.104
		L473.108,147.104l1.635-2.044l3.27-2.044l0.409-1.226l1.635-2.044l1.635-2.453l1.635-1.635h3.27l0.409,0.409l-0.409,1.226
		l-2.862,2.453l-3.679,2.453v1.226h2.044l2.044-1.226l7.358-7.358l0.736-1.226l0.491-0.409v0.409l2.453-2.044l3.679-1.226
		l1.226-2.453l2.861-3.27l4.088-3.27l3.679-4.497l2.044-1.226l3.679-0.818h1.226l0.409,0.409l-0.409,1.635l-2.108,1.807
		l-0.344-0.172l-1.635,1.226l-0.818,1.635h-0.818l-4.497,3.679l-0.409,1.635h0.818l3.27-2.453l-0.409,0.818l-2.861,2.861
		l-2.453,0.818l-1.226,1.226l0.409,1.635l0.409,2.861l1.635,0.409l-0.409,3.679l-2.861,4.497l-2.862,2.861l-2.453,1.226h-5.314
		l-4.088,1.226l-3.27,0.409l-2.044-2.044l-1.635-0.409l1.226,2.044l-2.453,2.861l-4.088,2.861l-4.088,1.226l-4.088-0.409
		l0.409-2.453l2.044-1.226l-0.409-0.136l0.409-0.273L473.108,147.104z M382.358,573.872l-2.102,1.401l-0.35-0.175v-0.818
		l1.635-2.861l-0.363-0.182l3.634-4.724l0.818-1.635v0.409l0.818-1.226l1.635-1.635l2.862,0.409v0.818l-2.862,4.088l0.197,0.099
		l-0.197,0.31l0.091-0.045l-0.908,1.272L382.358,573.872z M406.476,553.842h-0.818l-3.27,1.635l-1.132-0.377l0.081-0.323
		l1.051-1.752l0.189-0.44l0.629-0.786l-0.128-0.383l0.537-1.252l3.679-2.453h2.861l0.409,0.409v1.226l-2.044,2.453l0.146,0.073
		L406.476,553.842z M457.983,478.217l-0.52,0.223l0.111-0.223H457.983z"/>
	<polygon points="567.536,402.593 564.266,405.454 563.448,407.089 564.675,407.089 565.901,405.863 569.58,403.002 
		570.398,401.366 569.58,401.366 	"/>
	<polygon points="557.725,403.819 554.864,407.089 555.682,407.498 560.178,404.228 560.996,402.593 559.769,402.593 	"/>
	<polygon points="96.032,519.249 95.393,519.504 90.897,523.592 90.488,525.227 91.714,525.227 95.802,522.366 99.481,519.096 
		99.481,517.869 96.211,519.096 	"/>
	<polygon points="81.086,503.971 84.765,501.518 85.174,499.883 84.356,499.883 83.13,500.7 79.86,503.562 79.86,504.788 
		80.677,504.788 	"/>
	<polygon points="587.975,382.154 585.931,383.789 583.565,385.445 583.479,385.424 581.844,386.65 579.8,389.921 580.617,390.329 
		582.661,388.694 582.768,388.57 585.114,386.65 591.246,382.971 591.654,380.927 590.019,380.927 	"/>
	<polygon points="124.008,474.538 122.782,474.538 122.373,474.947 120.329,476.991 119.511,479.035 120.329,479.035 
		123.19,476.173 	"/>
	<polygon points="577.347,102.138 575.712,101.729 571.215,104.182 570.806,105.409 571.624,105.409 	"/>
	<polygon points="664.009,211.692 659.921,213.736 659.103,215.371 660.738,215.78 662.374,214.962 662.374,214.962 
		663.191,214.553 663.262,214.34 664.182,213.696 664.417,213.736 664.417,213.531 666.461,212.1 670.958,208.83 671.776,207.195 
		670.14,206.786 667.817,208.077 667.688,208.013 666.461,208.83 	"/>
	<polygon points="536.06,420.988 534.834,420.579 534.016,421.397 533.607,424.258 534.425,425.076 538.104,424.258 
		538.513,422.623 536.06,422.214 	"/>
	<polygon points="549.55,118.898 553.229,116.037 551.594,115.628 549.141,117.672 547.506,119.716 	"/>
	<polygon points="466.976,111.949 466.976,111.949 469.02,109.905 472.29,106.226 473.108,104.591 472.29,104.591 470.246,105.817 
		470.246,105.868 469.02,106.635 465.75,109.496 462.07,112.358 461.253,113.993 464.523,114.402 	"/>
	<polygon points="492.729,451.238 493.547,451.647 495.591,451.238 497.634,447.968 497.226,446.741 493.547,448.785 
		493.22,449.194 493.138,449.194 492.32,450.011 492.32,450.318 491.912,450.829 492.32,451.033 492.32,451.238 	"/>
	<polygon points="323.493,614.75 323.013,615.352 320.632,617.203 314.091,622.109 313.274,623.744 314.091,623.744 
		318.179,621.291 318.384,620.984 319.814,620.065 324.311,615.977 325.129,614.342 324.311,614.342 	"/>
	<polygon points="102.343,465.136 101.525,465.136 98.664,467.998 98.664,469.224 101.525,466.771 	"/>
	<polygon points="504.175,433.66 502.54,435.295 504.175,435.704 506.219,433.66 504.993,433.251 	"/>
	<polygon points="666.87,183.895 667.688,183.895 669.732,181.851 670.14,179.807 669.323,179.807 667.688,182.259 	"/>
	<polygon points="116.65,481.079 116.65,483.123 118.285,482.714 118.285,480.67 117.059,480.67 	"/>
	<polygon points="440.405,161.003 440.814,161.82 442.449,161.412 442.858,159.776 441.631,159.776 	"/>
	<polygon points="508.672,111.54 506.219,113.584 505.401,115.219 508.672,112.767 	"/>
	<polygon points="514.803,434.887 514.395,436.113 516.438,435.704 517.256,434.069 516.03,434.069 	"/>
	<polygon points="508.263,439.383 507.445,441.018 508.263,441.018 510.715,438.974 509.898,438.566 	"/>
	<polygon points="421.192,167.135 420.784,168.77 422.419,168.361 422.827,166.726 421.601,166.726 	"/>
	<polygon points="70.458,537.491 72.502,537.082 73.728,535.856 72.502,535.447 	"/>
	<polygon points="568.763,371.117 571.215,370.708 571.624,369.073 570.806,369.073 	"/>
	<polygon points="444.493,135.25 442.449,136.476 442.449,137.702 445.31,135.658 	"/>
	<polygon points="574.894,367.438 574.485,369.073 575.712,369.481 576.121,367.846 	"/>
	<polygon points="123.599,550.163 124.826,548.937 124.826,547.71 122.782,549.754 	"/>
	<polygon points="577.756,401.775 576.938,403.41 578.982,402.184 578.164,401.366 	"/>
	<polygon points="424.054,163.455 423.236,163.455 422.827,163.864 422.419,165.499 423.236,165.091 	"/>
	<polygon points="81.086,493.751 80.268,494.569 80.268,495.795 81.904,494.16 	"/>
	<polygon points="151.805,570.193 150.988,569.784 150.579,571.42 151.396,571.42 	"/>
	<polygon points="588.793,378.066 587.566,377.657 586.749,378.475 587.975,378.883 	"/>
	<polygon points="516.847,425.485 516.438,426.711 518.074,425.893 	"/>
	<polygon points="83.539,491.707 82.721,493.342 84.356,492.116 	"/>
	<polygon points="576.121,398.505 576.121,399.323 577.756,398.914 	"/>
	<polygon points="577.756,392.373 578.573,392.373 578.982,391.147 578.164,391.147 	"/>
	<rect x="668.096" y="178.58" width="1.226" height="0.818"/>
	<polygon points="151.805,577.143 152.214,575.916 151.396,575.916 	"/>
	<polygon points="554.864,113.993 554.864,114.81 555.682,114.402 	"/>
	<polygon points="597.786,98.459 597.377,98.868 598.195,99.277 	"/>
</g>
</svg>
