<?xml version='1.0' encoding='utf-8'?>
<svg xmlns:xlink="http://www.w3.org/1999/xlink" xmlns="http://www.w3.org/2000/svg" viewBox="0 0 115 360"> <defs> <linearGradient id="b"> <stop stop-color="#a88ac4" offset="0"/> <stop stop-color="#c9a84e" offset=".08567"/> <stop stop-color="#c4a44a" offset=".17134"/> <stop stop-color="#fff" offset=".29724"/> <stop stop-color="#a88ac4" offset=".59618"/> <stop stop-color="#a88ac4" offset=".78235"/> <stop stop-color="#50406b" offset=".86364"/> <stop stop-color="#a88ac4" offset=".94493"/> <stop stop-color="#a88ac4" offset="1"/> </linearGradient> <linearGradient id="f" x1="34.123" x2="143.01" gradientUnits="userSpaceOnUse"> <stop stop-color="#c8a0e8" offset="0"/> <stop stop-color="#d0aded" offset=".165"/> <stop stop-color="#cca8e8" offset=".3823"/> <stop stop-color="#c8a0e8" offset=".75"/> <stop stop-color="#c8a0e8" offset="1"/> </linearGradient> <linearGradient id="d" x1="113.13" x2="22.265" y1="209.82" y2="210.31" gradientUnits="userSpaceOnUse"> <stop stop-color="#a88ac4" offset="0"/> <stop stop-color="#fff" offset="1"/> </linearGradient> <linearGradient id="c" x1="34.15" x2="143.02" gradientUnits="userSpaceOnUse"> <stop stop-color="#6b5e8b" stop-opacity=".33668" offset="0"/> <stop stop-color="#6b5e8b" stop-opacity="0" offset=".4346"/> <stop stop-color="#6b5e8b" stop-opacity=".1005" offset=".65844"/> <stop stop-color="#6b5e8b" stop-opacity=".47236" offset="1"/> </linearGradient> <linearGradient id="e" x1="61.144" x2="115.45" gradientUnits="userSpaceOnUse" xlink:href="#b"/> <linearGradient id="a" x1="65.693" x2="107.26" gradientUnits="userSpaceOnUse" xlink:href="#b"/> </defs> <g transform="translate(-31.07 -87.666)"> <path d="m62.327 125.3s11.678-32.083 25.336-32.204c13.818-0.12181 26.204 32.124 26.204 32.124" fill="none" stroke="#000"/> <path d="m86.58929,334.68927a.60523,.60523 0 0,0 -.48947.60072l-.48948,44.60918a.61185,.61185 0 0,0 1.22369,0l.48948-44.58693a.60523,.60523 0 0,0 -.73422-.62297z" fill="#c4a44a"/> <path d="m61.34 137.03c-0.18336 0.42949-0.97116 1.0361-1.9134 1.4462-2.7358 1.1906-7.3642 4.1104-9.2778 5.8515-3.7547 3.4163-6.5634 6.8384-6.5634 7.9874 0 0.54248-0.48058 1.1763-1.068 1.4017s-1.0815 0.77611-1.0902 1.2237-0.63594 1.6242-1.4017 2.6031-1.4152 2.4794-1.4239 3.3373-0.32039 1.7604-0.71197 2.0024-0.71196 1.4675-0.71196 2.7366-0.30396 2.6094-0.66747 2.9814-0.84538 8.2188-1.068 17.421-0.59545 22.658-0.82322 29.903c-0.6383 20.302-0.65838 36.539-0.0667 45.811 0.29625 4.6424 0.53754 10.89 0.53398 13.883-8e-3 6.8885 1.3668 20.178 2.1804 21.07 0.33948 0.372 0.62297 1.242 0.62297 1.9357 0 1.2053 2.4268 6.7956 4.6055 10.568 2.4428 4.23 9.7377 10.47 15.619 13.372 3.2631 1.61 6.7822 3.0997 7.8094 3.3151l3.6488 0.77872c0.0327 7e-3 0.0575 0.0154 0.089 0.0222h36.043c0.0518-0.0583 0.0974-0.12039 0.17799-0.20024 0.39158-0.38819 2.7945-1.4342 5.3398-2.3361 7.2799-2.5798 12.052-5.6066 17.554-11.102 7.3347-7.3255 9.3328-11.874 11.258-25.586 0.60405-4.3023 1.2638-10.693 1.4684-14.217s0.51955-8.056 0.68972-10.057c0.55849-6.5655 1.1026-46.606 0.64522-47.346-0.24578-0.3977-0.55823-8.8798-0.68972-18.845s-0.44965-18.797-0.71196-19.624-0.58606-2.3336-0.71197-3.3596c-0.95922-7.8161-1.3338-9.2908-3.1149-12.192-0.36053-0.58737-1.5157-2.8301-2.5809-4.9838s-2.5417-4.3386-3.2706-4.8503-1.3127-1.3282-1.3127-1.8022c0-2.9157-11.048-11.859-14.64-11.859-0.6177 0-0.90948-0.32038-0.66747-0.71196 0.14278-0.23104 0.14599-0.44819 0.0445-0.57848z" fill="url(#f)"/> <path d="m61.144 137.34s18.067 2.3149 27.153 2.4041c9.0718 0.089 27.153-1.8677 27.153-1.8677l-0.49007-12.52s-17.522-0.71052-26.288-0.75825c-9.103-0.0496-27.305 0.49007-27.305 0.49007z" fill="url(#e)"/> <path d="m96.827 161.53c-2.6938-0.0417-6.9194 4.1383-6.9194 4.1383l0.64522 4.472 3.4931-1.0012s0.53104 6.0104 0.35599 9.0108c-0.21791 3.7348-1.7354 11.102-1.7354 11.102l-4.8948 3.4486-1.6909-13.861s-3.3487-1.1696-4.8503-2.0914c-2.3031-1.4138-6.2297-5.184-6.2297-5.184v13.527s2.8115 2.219 3.4708 3.8046c0.88091 2.1184 1.2642 4.7779 0.33373 6.8749-1.2706 2.8636-7.2754 5.9405-7.2754 5.9405l-4.8503-2.7589s-0.64055 7.8563 0.68972 11.436c1.0623 2.8586 2.5003 7.0297 5.54 7.2754 3.0134 0.24362 6.5857-6.252 6.5857-6.252s-1.646 4.3837-2.4474 6.5857c-3.1849 8.7506-5.6018 17.806-9.3223 26.343-3.3854 7.7676-6.9976 14.98-11.792 22.516-0.49604 0.77966-0.24116 1.8891 0 2.7811 0.20941 0.77455 0.47291 1.7861 1.2237 2.0692 1.1963 0.45095 2.5656-0.48807 3.6266-1.2014 1.7675-1.1885 2.9778-3.0789 4.1606-4.8503 2.7682-4.1458 6.7637-13.349 6.7637-13.349l3.4708-9.1888s3.1934-11.752 7.2754-15.93c1.4803-1.515 3.6011-2.8528 5.718-2.7811 0.93074 0.0315 1.7688 0.74095 2.4251 1.4017 3.7359 3.7612 5.4982 9.0795 7.7871 13.861 1.88 3.9275 2.6411 8.3734 4.8503 12.126 1.0205 1.7334 2.4167 3.2378 3.8268 4.6723 1.6952 1.7245 3.4175 3.5136 5.54 4.6723 2.7581 1.5056 5.9954 3.6646 9.0108 2.7811 0.94386-0.27655 1.6166-1.3027 1.8912-2.2471 0.83001-2.8549-1e-3 -6.1128-1.2014-8.8328-0.72844-1.6508-2.2355-2.8455-3.4708-4.1606-3.9721-4.2284-8.9887-7.4595-12.637-11.97-1.9561-2.4181-3.2625-5.2907-4.8503-7.9651-2.1122-3.5578-5.4346-6.6858-6.2297-10.746-1.1205-5.7223 2.4029-17.31 2.4029-17.31s6.9631 1.2894 9.3668-0.71197c1.3722-1.1425 1.3886-3.3988 1.3572-5.184-0.0488-2.7748-0.32764-6.1225-2.4029-7.9651-1.4911-1.324-5.896-1.0457-5.896-1.0457s2.4145-4.9523 2.7811-7.6314c0.61258-4.4765-1.0457-13.505-1.0457-13.505s-2.928-3.0852-4.8503-3.1149zm-11.124 70.462c-0.55757-0.0214-1.1403 0.12398-1.6242 0.35598-1.2783 0.61288-2.1222 1.9508-2.8256 3.1816-0.85235 1.4913-1.5797 4.917-1.5797 4.917s1.9969 1.767 2.5809 2.9369c0.70762 1.4175 0.95671 4.65 0.95671 4.65s-3.9772 3.0715-6.3632 3.4486c-1.1487 0.18156-3.4263-0.62297-3.4263-0.62297l-1.3349 2.8701s1.9127 6.159 4.1606 8.2766c1.9167 1.8057 7.2532 3.1149 7.2532 3.1149l0.0222 4.8948-8.6771 5.184-0.57847-7.0752s-1.3798-1.9507-2.3139-1.7132c-2.054 0.52225-2.1194 3.722-2.6921 5.7625-1.0103 3.5996-1.3543 7.4096-1.2459 11.147 0.0852 2.9395 0.34753 5.9899 1.4907 8.6994 0.51123 1.2117 0.99914 3.213 2.3139 3.1816 2.446-0.0584 4.0494-6.1185 4.0494-6.1185l2.2026-5.7625 2.4474 4.5388 2.0914 6.4967s1.7808 4.5801 3.7823 4.65c1.8479 0.0646 3.8046-4.0493 3.8046-4.0493l1.6019-36.132s5.696-2.5212 6.7637-5.1395c0.7513-1.8425 0.1406-4.1939-0.88996-5.896-1.2565-2.0753-4.4701-2.3153-5.8737-4.294-1.3081-1.8441-0.99367-4.4517-1.9579-6.4967-0.81638-1.7314-1.4951-3.8984-3.2038-4.7613-0.28741-0.14512-0.59991-0.23193-0.93446-0.24473zm7.0752 37.912 4.1828 10.057-4.4276-0.97896s3.5733 4.8898 4.917 7.5869c1.1638 2.336 2.6921 7.3644 2.6921 7.3644s5.7225-4.1858 6.3632-7.3644c0.93398-4.6336-1.0853-10.118-4.4053-13.483-2.3041-2.335-9.3223-3.1816-9.3223-3.1816zm-9.1888 7.1642v7.2532l-3.7823-2.0469 3.7823-5.2063z" fill="url(#d)"/> <path d="m54.6427,141.10653c-.48678.30486-.98533.62513-1.44618.93446-.008.006-.014.0167-.0223.0222 11.95133,1.7354 25.24255,3.30659 34.5749,3.44859 9.96342.15159 23.67901-.93939 36.75529-2.33615-.008-.007-.0142-.0157-.0222-.0222-.41765-.3382-.84044-.67945-1.26819-1.0012h-.0222c-12.70435,1.33797-25.86645,2.3706-35.4426,2.2249-8.89447-.13533-21.51596-1.61212-33.10647-3.2706zm-8.41011,7.14192c-.1608.18174-.29857.35378-.44497.53397l-.33374.40048-.0668.089c13.59861,2.13153 30.8906,4.4755 42.36204,4.65003 11.56793.17601 28.17698-1.31899 42.985-3.02586-.0698-.1112-.12942-.20827-.17799-.31148-.0106-.0242-.0132-.0432-.0222-.0668-.0475-.12379-.089-.23417-.089-.33373 0-.1221-.0294-.25835-.0668-.40048-14.74606,1.69812-31.22234,3.17716-42.62901,3.00361-11.14387-.16956-28.03576-2.44113-41.51658-4.53879zm-5.11726,7.5869c-.038.0774-.0672.14047-.11124.22249-.0543.0987-.11528.18688-.17799.28923-.0873.14936-.16628.29087-.26699.44498-.0268.0404-.0614.0701-.089.11125 14.04354,2.28979 34.38869,5.23262 47.27906,5.42874 12.94706.19699 32.23714-1.70721 48.2135-3.64883-.18474-.36431-.36533-.70817-.55622-1.0902-15.89232,1.92575-34.93694,3.79788-47.65728,3.60434-12.60611-.19181-32.61376-3.08793-46.63384-5.362zm-3.64883,7.80938c-.0529.16182-.0971.34529-.13349.53398s-.065.38258-.089.60072c13.95925,2.33422 36.55237,5.75044 50.50516,5.96272 13.95546.21233 35.2396-2.02458 51.84009-4.11606-.021-.092-.0231-.20064-.0445-.28923s-.0435-.17781-.0668-.26699c-.0511-.20024-.10139-.3713-.15574-.55622h-.0222c-16.57766,2.08115-37.76375,4.30357-51.55085,4.09381-13.77602-.20961-36.32436-3.6343-50.28267-5.96273zm-1.40168,8.18762c-.00067.008.00066.0138 0,.0222-.0254.33346-.0412.73931-.0668,1.11245 13.80547,2.33086 37.3545,5.96617 51.7511,6.18521 14.3079.21769 36.3413-2.1367 53.10828-4.2718-.001-.008.001-.0146 0-.0222-.0522-.29848-.10202-.58896-.1335-.84546-.012-.098-.0104-.17096-.0222-.26699h-.0222c-16.76091,2.12845-38.76491,4.48733-52.93028,4.2718-14.26788-.21708-37.90025-3.86121-51.68435-6.18521zm-.44498,8.34336c-.0139.35961-.0313.76535-.0445,1.1347 13.7367,2.32657 37.62716,6.03064 52.17383,6.25196 14.58047.22184 37.18887-2.21688 54.06498-4.38305-.0173-.4493-.049-.75143-.0667-1.15694-16.8834,2.16299-39.53008,4.62543-53.99824,4.40529-14.42381-.21945-38.42002-3.93303-52.12933-6.25196zm-.24474,8.36562c-.009.36197-.0129.7862-.0223,1.15694 13.69742,2.32368 37.77143,6.0517 52.39632,6.27421 14.64639.22284 37.38761-2.23199 54.28747-4.4053-.008-.37502-.014-.7903-.0222-1.15694-16.91152,2.17145-39.71855,4.64887-54.26522,4.42754-14.51001-.22076-38.71025-3.98112-52.37407-6.29645zm-.20024,8.34336c-.008.29358-.0143.55117-.0223.84546-.004.11038-.0191.21734-.0222.33373 13.65504,2.32028 37.91439,6.09499 52.61881,6.31871 14.69278.22355 37.52725-2.2493 54.44321-4.42755-.004-.20272-.002-.40258 0-.60072s.003-.37981 0-.57847c-16.92952,2.177-39.84393,4.67192-54.44321,4.44979-14.581-.22185-38.95021-4.029-52.57431-6.34095zm-.24474,8.36561c-.0122.43257-.0102.75521-.0222,1.17919 13.61018,2.31641 38.05734,6.13828 52.8413,6.36321 14.75955.22456 37.72748-2.28681 54.6657-4.47204-.0118-.36573-.0331-.77139-.0445-1.15695-16.94685,2.18245-39.96932,4.69497-54.62121,4.47204-14.66721-.22316-39.2459-4.07812-52.81905-6.38545zm-.24474,8.38786c-.0101.33263-.0125.84278-.0222,1.15695 13.55842,2.30509 38.21537,6.15919 53.08604,6.38545 14.91115.22687 38.19273-2.3223 55.17743-4.51654-.005-.099-.0163-.15983-.0222-.24474-.021-.33552-.0382-.53222-.0668-.57847-.0201-.0326-.0459-.19639-.0667-.33374-16.98347,2.19443-40.2508,4.76353-55.02169,4.53879-14.75214-.22445-39.54381-4.1055-53.06379-6.4077zm-.22249,8.36561c-.006.22623-.0165.46468-.0222.68972-.007.14953-.0186.3002-.0223.44498 13.503,2.30622 38.37237,6.22461 53.33078,6.4522 14.93151.22718 38.25366-2.34257 55.24418-4.53879 .00044-.16569-.005-.33667 0-.51173 .0004-.20493.022-.44565.0222-.64522-17.0039,2.20143-40.4235,4.78688-55.26643,4.56104-14.83074-.22565-39.81816-4.15525-53.28628-6.4522zm-.20024,8.36561c-.00097.0536.00097.1022 0,.15574-.006.33797-.0165.6604-.0222,1.00121 13.46141,2.30199 38.48752,6.24591 53.50877,6.47445 14.91115.22686 38.19273-2.3223 55.17743-4.51654 .004-.32796.0166-.65424.0222-.97896 .00068-.0663-.00066-.13412 0-.20024-16.99852,2.19956-40.37617,4.78658-55.19968,4.56104-14.90173-.22673-40.06744-4.20491-53.48652-6.4967zm-.11124,8.38786c-.003.39306.002.76994 0,1.15695 13.43956,2.2997 38.54444,6.26766 53.59776,6.4967 14.88509.22647 38.11131-2.32487 55.08843-4.51654 .006-.38683.0161-.76918.0222-1.15695-16.99096,2.19697-40.31389,4.76392-55.11068,4.53879-14.94103-.22733-40.20673-4.2302-53.59776-6.51895zm0,8.43236c.002.36816-.003.77411 0,1.1347 13.43956,2.2997 38.54444,6.26766 53.59776,6.49669 14.83216.22567 37.94926-2.30789 54.91044-4.49429 .009-.38022.0137-.7686.0223-1.15694-16.97555,2.19178-40.18852,4.74087-54.93269,4.51654-14.93975-.22731-40.20582-4.20785-53.59776-6.4967zm.13349,8.43236c.003.10439-.003.20809 0,.31148 .005.28482.0127.57208.0222.84546 13.47773,2.30367 38.44516,6.22403 53.44202,6.4522 14.75955.22457 37.72748-2.28681 54.6657-4.47204 .0126-.3358.01-.79612.0222-1.15694-16.95332,2.18452-40.01581,4.71752-54.68795,4.49429-14.89285-.22659-40.03894-4.182-53.46427-6.47445zm.40048,8.47685c.0213.3916.0465.75754.0668,1.15695 13.57761,2.31344 38.15794,6.15968 52.99704,6.38545 14.60085.22215 37.24816-2.2369 54.13173-4.40529 .0324-.46436.0581-.73151.089-1.15695-16.90699,2.17007-39.68701,4.64868-54.22073,4.42755-14.75214-.22446-39.54381-4.1055-53.06379-6.40771zm.35598,8.45461c.002.0898-.002.20109 0,.28924 .006.29474.0167.57466.0222.86771 13.64155,2.31914 37.95675,6.11686 52.68556,6.34095 14.43736.21967 36.75452-2.16614 53.57551-4.3163 .035-.42696.0608-.79049.089-1.17919-16.84587,2.15205-39.2951,4.57943-53.6645,4.36079-14.62791-.22256-39.11105-4.05369-52.70781-6.3632zm.22249,8.43236c.007.12667.0125.25332.0222.37823 .007.11476.015.21836.0223.33374 .0128.15523.034.30744.0445.46722 13.69674,2.32364 37.77012,6.07393 52.39632,6.29646 14.18987.2159 35.97118-2.08413 52.68555-4.20505 .0134-.1107.0319-.22294.0445-.33374 .0327-.27469.0568-.56652.089-.84546-16.74725,2.12476-38.68448,4.46461-52.81904,4.24955-14.54988-.22137-38.84355-4.02091-52.48532-6.34095zm.73422,8.52135c.0229.20536.0435.40038.0668.60072 .0219.20789.0423.42133.0667.62298 13.82596,2.3319 37.26978,5.92241 51.61761,6.14071 13.84339.21062 34.89783-1.97248 51.4396-4.04931 .0368-.20285.0774-.41449.11125-.62297 .0322-.18454.0571-.39.089-.57848-16.59024,2.08427-37.82883,4.30395-51.63984,4.09381-14.29197-.21744-37.97793-3.88412-51.7511-6.20746zm1.86891,8.7216c.0184.13769.0222.27071.0222.40048 0,.0753.004.15891.0222.26699 .006.0326.0141.0535.0223.089 .0323.13965.0846.29187.13349.46723 14.02131,2.32911 36.0216,5.62139 49.68195,5.82923 13.20676.20094 32.99085-1.79541 49.14796-3.78232 .15431-.39708.30243-.80588.44498-1.2237-16.2627,2.00676-36.34268,4.05067-49.59294,3.84907-13.6353-.20746-35.89081-3.5694-49.88219-5.89597zm3.55984,9.01083 .0222.0445 .22249.42273c.14612.26973.29949.53876.44498.80096 13.96109,2.24198 33.21735,4.97287 45.63263,5.16176 11.66736.17751 28.46011-1.34538 43.36323-3.07036l.089-.089c.0323-.0361.057-.0751.089-.11125 .32641-.36586.63418-.72989.93446-1.0902-15.20233,1.78564-32.5865,3.407-44.47568,3.2261-12.51637-.19043-32.3167-3.02878-46.32235-5.29525zm8.25436,9.70055c.58602.48522 1.19276.9615 1.80217,1.42393 1.09773.16233 2.19418.32964 3.3151.48948l1.40168.20024c.78372.10991 1.56864.20404 2.35839.31149l4.02706.53397c.92274.11822 1.83868.22149 2.75888.33373 .40271.0491.79984.10792 1.20144.15575 1.07502.12802 2.14165.26071 3.20385.37823l2.80337.28924c.67932.0694 1.35598.1366 2.02466.20024 .21969.0209.44906.0465.66747.0667 1.25245.11605 2.51345.21886 3.71557.31149 .84366.0649 1.65629.12599 2.46964.17799 2.22991.1425 4.38194.23752 6.31871.26699 1.09284.0166 2.24886.0121 3.42634,0l1.66867-.0223c.64599-.0132 1.31425-.024 1.98016-.0445l.75646-.0222c1.01394-.0348 2.06224-.0836 3.11486-.13349l1.33493-.0667c1.31376-.0697 2.64635-.15507 4.00482-.24474l.33373-.0222c.82475-.0547 1.67664-.11679 2.51414-.17799l.44498-.0445c2.38916-.1773 4.80302-.37961 7.25316-.60073 .29685-.0268.59268-.0394.88996-.0667l1.42393-.1335c.96989-.0917 1.94428-.19263 2.91461-.28923h.0223c.71202-.4256 1.40598-.88488 2.09141-1.35719-1.53849.15907-3.08704.31947-4.62779.46723-.18499.0177-.37131.027-.55622.0445-1.35426.12855-2.70501.26095-4.04931.37823-.75528.0657-1.51964.13859-2.2694.20024-.33425.0275-.66829.0401-1.0012.0668-1.74194.13923-3.46974.26549-5.16176.37823-2.02007.13459-4.00353.24417-5.91823.33373-1.03761.0487-2.07216.0999-3.07035.1335-.83782.0281-1.66344.0501-2.46964.0667l-1.42393.0223c-1.25484.0152-2.46931.0176-3.62658,0-.65709-.01-1.32883-.0203-2.02466-.0445-.65008-.0226-1.32166-.0548-2.00241-.089h-.13349c-.94933-.0486-1.95814-.1311-2.95911-.20024l-1.57968-.11125c-.0579-.004-.11997-.0177-.17799-.0222-1.51243-.11832-3.08144-.24568-4.67229-.40048-1.46888-.14289-2.98067-.2987-4.49429-.46723-.13937-.0155-.28307-.0288-.42273-.0445-1.16226-.13079-2.33895-.27986-3.51533-.42273l-1.82442-.22249c-1.44247-.1812-2.89819-.36264-4.33855-.55623-1.68685-.22692-3.37011-.47443-5.02826-.71197-.33859-.0485-.66452-.0847-1.00121-.13349-1.31243-.19002-2.59668-.38646-3.87132-.57847h-.0223z" fill="url(#c)"/> <path d="m66.28423,338.07825c-.16045-.14974.10052.11901-.0687.27434 .0539.13643-.008-.16752-.30648-.0465-.0233-.21232-.0998.60063-.0488.80805 .17644.12036-.26506.47036-.0693.37654-.0312.2113-.41204,7.39782-.30361,7.58184-.19189.0938.1934-.007.19451.20683 .0734-.20057.0669,7.84476.22359,7.69963-.17201-.12662.0121-.19578.0936.003 .20293-.0666-.13437,6.66059-.32123,6.55713-.0917.19289.8981.25496 1.13072.13393-.0584-.20546-.0671-22.438-.0463-22.65057 .20484-.0914.39047-.58658.0649-.65461 .0306-.27146-.34583.15589-.68304.0322-.23313.0326.0303-.55179-.14403-.40061 .16404-.13679-.18739-.0471-.10968.15188m3.26114-.0306c-.15341.1696-.17437.0596-.14469.27658-.12972-.0888-.93945-.0805-.77172.34364 .19333.0908.61907,22.85057.40926,22.89058 .11589-.002.77209.32221 1.2067.16452 .0464-.20849-.4738-22.79241-.42569-23.00051-.18353-.26715.0251-.24303-.12399-.57226-.22858-.30061.14875-.34164-.0991-.13912-.0451-.21359-.55666-.14547-.45359.0287-.12696-.17176-.11573.30597.0927.25953m2.05221-.28029c-.0347.2195.44243.30182.21457.32031-.31761.2749-.53703.11094-.43187.58515-.10978.18321-.52541,22.94295-.31341,22.96891 .43195.26031.96115.0404 1.22168.2147-.056-.20612.19793-23.40027.39925-23.32892 .20881-.23047-.444-.0346-.5622-.36609-.23837.0585-.16437-.55376-.13511-.46383 .11057-.16851-.49826.0849-.39419.25839-.0206.21258.1074.24453.0297.0456m3.21039-.21359c.0916-.1782-.4106.25098-.2175.30915-.37033-.12753-.57025.4238-.66316.51952-.0392-.20996.15591,23.62412.002,23.47565 .36677.25622 1.04037-.46665 1.34222-.23445-.18836.1007-.15468-23.4763.0289-23.58545-.17091-.28788-.0793.31015-.16699-.0192-.057-.32265-.32815-.26103-.28178-.27108-.1602.16182-.12248.0665-.0306-.11282 .11895.17741-.0556-.006-.1347.19223m2.25965-.26631c-.19677-.10556-.27592-.10215-.45513.0419-.0675.0283-.35587.36266-.30286.4398 .17461-.123.0347,23.88657.22919,23.79829 .57528-.0868.44859.58175.986.4509-.12978.16964.0217-24.0468.16025-24.20938-.10031.0191.20265-.22464-.0983-.23249 .0883-.0622-.43649.008-.80159-.0659 .13194.14659.34793-.15352.20068.0209-.069.20212-.0626-.20457-.18424-.38011m1.99554.14011c-.0291.21993.18712-.34438.13495-.12611-.49127.0551-.28001.64774-.25008.72092-.0156-.21302-.59121,23.8578-.38737,23.92159 .56941.17138.96567.12023 1.2066.29794-.14961-.15244.46326-23.84197.3845-24.04051-.2063-.13528-.40932-.37005-.39455-.3206 .0866-.17955-.31368-.75973-.5576-.55563 .19057.0171.0822.16375.099-.045-.19466-.0879-.10402.20347-.0903.41662m2.38797-.11484c-.0703.21315-.25027-.0215-.44119-.13396-.33607-.14048-.22685.4416-.41493.81749 .0802.19797-.26786,23.90452-.0543,23.90765 .21246.117.64242-.1021 1.20993.065 .0385.21009-.0471-24.46516.10743-24.31777 .0949-.36044-.17698.23951-.19011-.0645-.3174-.19429-.3124-.24215-.27971-.16059-.088-.20444-.16318-.36678.0274-.34757 .13208-.16785.0848.48431-.001.28879m2.0923-.32619c-.0321-.20611-.49931.25012-.31833.34415-.0643.062-.30743-.24169-.25647.25233-.20604-.0563-.01,24.06383.0105,24.27643 .61298-.001.73225.45356.93874.36285 .18101-.11339.0835-24.0231.1614-24.22198 .20544-.093.3348-.33298.0719-.60773-.33131-.10876-.84281-.42172-.86487-.25959-.2251-.0681.25982-.007.27237.2054 .16269-.13839-.22446-.31327-.33854-.1327m2.16778.0796c.0663.20425.39809.14243.17301.11461-.28685.27843-.54188.12082-.42433.58794-.18491.10692-.22977,24.04756-.29151,24.25203 .63445.0522 1.28177.1843 1.46316.20949-.1862-.10465.008-24.40244.14145-24.56883-.007-.37995-.44462-.78086-.41438-.74493-.0742-.32698-.1264-.0981-.19947.0989-.22929-.0537-.27406-.0961-.12868-.22727 .2057-.0575-.096-.11337.0418.0499m1.75373.0342c-.12994.18691.42331.23499.2048.30635-.36412-.13038-.42895.21141-.62026.58004 .12774-.17118.38438,24.01741.29252,24.21024 .14203.20395-.17116.19987.0856.31031 .24972.2133.40757-.074.92281-.0201 .11911.1773.30393-24.52764.0931-24.49342 .17331-.29814-.1508-.30251-.0843-.52824-.21272.0735-.6476-.678-.71707-.48286 .17321.0849-.21435.0485-.0322-.0124 .21318-.0133-.0155-.16895-.0745.0363m2.47652.14069c.15599-.12101.026.34394-.0685.15393-.48281.1253-.77463.0892-.85618.56967 .0115.21328.61074,24.28471.4017,24.32858 .19408.0334.53436-.35363.95321-.15625 .0332-.21099.0576-24.24365.0487-24.45706-.20836-.15589-.1181-.53388-.17899-.44597-.29496-.23741-.67617.10078-.63196.13949 .158.11338-.12916.0704.06.10197-.0179.21284-.19874-.12521-.11768-.32282m2.93592-.0757c-.0659.21428.0568.24003-.168.21048-.45578.18326-.23792.73408-.2961.81552 .18707.10308.37833,24.21675.23413,24.05917 .59188-.12093.47386-.21291.81442-.0369 .0556.20622-.20179-24.27909-.0122-24.18079 .20703-.0975.51595-.18047.193-.35826-.18632.0844-.45919-.027-.7719-.17797-.14272.17514.26276-.41424.29847-.20743-.19268-.0922-.48557.19758-.28363.26716m2.16654-.40469c-.19985.11403.14927.62815.0572.43715-.34757.26693-.89614.0612-.69169.26918 .0742-.20029.23362,24.18792.0231,24.22411 .35788.18327.93384-.16098 1.17225-.0527-.0703.20168.45771-23.76987.25934-23.84905 .14603-.006.27692-.51311-.0471-.68706 .0288.0373-.36443-.25469-.45961-.0485 .0278-.20887-.23332-.0928-.1209.0743 .0824.19706-.13947-.17532.0712-.13999m1.93022-.23352c-.22158.0616.10863-.17076.0449.0451-.17475.25206-.23888.77709-.39642.92433-.15392.14808-.36004,24.00415-.30343,23.79819 .42796-.24355.52284.19426 1.1398.15574-.18021-.11465-.0793-24.24175-.0103-24.03959-.14251-.0122.0898-.46158.17214-.65385 .0803-.0384-.7144-.15037-.79047.048-.22997.0484.30996.0961.34595-.10819-.19791-.0803-.31051.30313-.41061.11445m2.3521.14239c.18196.0891.37836-.23392.15035-.23246-.11911.20788-.8473.4191-.69086.85546 .20699.0527.32165,23.4727.11225,23.5148 .3888-.24727.49629-.24672.95988-.0798 .2089.0445.26021-23.30485.0949-23.44013-.0237-.37835.25064-.85376.0467-.77617-.0665.0894-.43142-.22554-.41499-.11064 .14202.13531-.199-.0713-.43437-.084 .21267.0198.003.12561.0646.33021m2.37847-.34652c-.0908-.19295-.0463.44358-.26194.37959-.0643.0615-.6032-.0665-.6066.43225-.13218-.16779.12557,23.30047.11946,23.51397 .36395.14454.62098-.16387 1.26865-.15274-.12334.17438-.0934-23.30932-.15172-23.5148 .189-.0583.16684-.20949.0337-.11436-.24828.0513-.32974-.21203-.29587-.28053 .0104.20985-.16584.0899-.39742.0487-.17472-.12286.35626-.31011.15108-.36948m1.94022.11704c-.22757.029.32398.0375.30708.25907-.13942.22764-.54077.37546-.7477.63746-.1988-.0781.11083,23.75329.16914,23.54782 .37507.16869.78285-.0561.97487-.19926 .10342.18688.49244-23.72308.39024-23.53552-.13745-.008-.46813-.34977-.45803-.63867-.0331.0781.1364-.0914-.17043.0747 .0422.20241-.18007-.36618-.37415-.2381-.1997-.0758-.26035.0571-.048.0345m2.15543.3255c-.0615.2153.33293-.18027.18323-.33762-.43345-.0813-.84398.74348-.77778.82409-.21325.012.15062,23.31281.31889,23.44437 .33283.13553 1.14996-.34101 1.30511-.32329-.11517.17988-.0971-23.09936-.0647-23.31047 .20432-.24336-.20651.12527-.17143-.14169-.33105-.13198-.34612-.30225-.48866-.50951 .0721-.19285.13567.36835.0365.17033 .21249.0217-.45542-.25225-.24889-.19781m2.34946.0924c-.17256-.13754-.077.39013-.29718.34055-.16759-.11787-.69497.1942-.57905.29679-.001.21359.50877,23.03049.29832,22.99399 .16422-.11923 1.01605.0452 1.11704.23338 .21358-.003-.57539-6.86324-.57111-6.64969 .18298.13537.69895-.25454.56624-.0872 .0399.20983-.35224-7.83312-.21139-7.67255 .2124.10337-.0657-.22124.14624-.19479 .15445.14753-.47664-7.40167-.5709-7.59334 .22673.0732.25912-.11806.32618.0847 .21332.0107.29621-1.43597.21702-1.2376-.31603-.21406-.26933-.3915-.48098-.59729 .10612.1695.11252-.12825.0375.0799-.0863-.19538-.35412-.17388-.15707-.0915" fill="#c9a84e"/> <path d="m65.693 338.11s13.828 2.3149 20.782 2.4041c6.9433 0.089 20.782-1.8677 20.782-1.8677l-0.37509-12.52s-13.411-0.71052-20.12-0.75825c-6.9672-0.0496-20.898 0.49007-20.898 0.49007z" fill="url(#a)"/> <path d="m65.693 338.11s13.828 2.3149 20.782 2.4041c6.9433 0.089 20.782-1.8677 20.782-1.8677l-0.37509-12.52s-13.411-0.71052-20.12-0.75825c-6.9672-0.0496-20.898 0.49007-20.898 0.49007z" fill="url(#a)"/> <path transform="matrix(.71197 0 0 .71197 -166.58 64.416)" d="m358.62 445.62c0 1.9008-1.5409 3.4417-3.4417 3.4417s-3.4417-1.5409-3.4417-3.4417 1.5409-3.4417 3.4417-3.4417 3.4417 1.5409 3.4417 3.4417z" fill="#a88ac4"/> <path d="m85.05704,383.62026c-.42116,0-.77078.24225-.93446.60072-.0602.13174-.11124.26795-.11124.42273v2.58088c0,.072.008.15469.0222.22249 .001.007-.001.0149 0,.0222l-1.33494,53.8425 .53398.0445 1.33494-53.21953c.0636.0329.12974.0697.20024.089l-1.2237,53.37527 .55623.0445 1.20144-53.37527h.28924l-1.22369,53.33077 .55622.0445 .66747-29.63563-.22249,29.72462 .55622.0222 .31149-42.45103 .15574,43.42998h.53398l-.15575-42.82926 1.24595,42.38428 .53397-.0445-1.60192-53.97599h.28923l1.60193,54.02049 .55626-.0444-1.60193-54.02049c.10105-.0255.20256-.0587.28924-.11124l1.60193,54.17623 .53397-.0445-1.62417-55.02169v-2.58088c0-.14398-.0365-.27602-.089-.40048-.003-.006.003-.0161 0-.0222-.16167-.36343-.53195-.60073-.95671-.60073h-2.49188zm1.24594,4.65003h.11125l.0445,1.20145h-.15574v-1.20145z" fill="#c4a44a"/> <path d="m84.03359,384.51022c-.008.0437-.0222.0867-.0222.13349v.91221h4.58329v-.91221c0-.0483-.0148-.0877-.0222-.13349h-4.53879zm-.0222,1.53518v1.0457h4.58329v-1.0457h-4.58329z" fill="#b48ad4"/> </g> </svg>